<?xml version="1.0" encoding="utf-8"?>
<!-- Generator: Adobe Illustrator 22.1.0, SVG Export Plug-In . SVG Version: 6.00 Build 0)  -->
<svg version="1.1" id="图层_1" xmlns="http://www.w3.org/2000/svg" xmlns:xlink="http://www.w3.org/1999/xlink" x="0px" y="0px"
	 viewBox="0 0 200 200" style="enable-background:new 0 0 200 200;" xml:space="preserve">
<style type="text/css">
	.st0{fill:#231815;}
</style>
<path class="st0" d="M133.6,193.2c0.8-0.3,1.5-0.8,2.1-1.3c2.5-2.4,2.5-6.4,0-8.8c0,0,0,0,0,0c-0.6-0.6-1.3-1-2.1-1.3
	c-0.7-0.4-1.6-0.5-2.4-0.5c-3.5,0-6.3,2.8-6.3,6.3c0,3.5,2.8,6.3,6.3,6.3C132.1,193.7,132.9,193.6,133.6,193.2L133.6,193.2z
	 M121.4,164.9l-14.8-18.8c-2.1-2.7-6.1-3.2-8.8-1c-2.7,2.1-3.2,6.1-1,8.8l0,0l14.8,18.8c2.1,2.7,6.1,3.2,8.8,1
	C123.1,171.5,123.6,167.6,121.4,164.9z M91.9,127.4L70.4,100l65.8-83.6c2.1-2.7,1.7-6.6-1-8.8c-2.7-2.1-6.6-1.7-8.8,1l0,0L57.6,96.1
	c-1.8,2.3-1.8,5.5,0,7.8l24.6,31.3c2.1,2.7,6.1,3.2,8.8,1C93.7,134,94.1,130.1,91.9,127.4L91.9,127.4L91.9,127.4z"/>
<path class="st0" d="M230.2,193.3c-0.8-0.3-1.5-0.8-2.1-1.3c-2.5-2.4-2.5-6.4,0-8.8c0,0,0,0,0,0c0.6-0.6,1.3-1,2.1-1.3
	c0.7-0.4,1.6-0.5,2.4-0.5c3.5,0,6.3,2.8,6.3,6.3c0,3.5-2.8,6.3-6.3,6.3C231.7,193.7,230.9,193.6,230.2,193.3L230.2,193.3z
	 M242.4,164.9l14.8-18.8c2.1-2.7,6.1-3.2,8.8-1c2.7,2.1,3.2,6.1,1,8.8l0,0l-14.8,18.8c-2.1,2.7-6.1,3.2-8.8,1
	C240.7,171.5,240.2,167.6,242.4,164.9z M271.9,127.4l21.5-27.4l-65.8-83.6c-2.1-2.7-1.7-6.6,1-8.8c2.7-2.1,6.6-1.7,8.8,1l0,0
	l68.8,87.5c1.8,2.3,1.8,5.5,0,7.8l-24.6,31.2c-2.1,2.7-6.1,3.2-8.8,1C270.1,134,269.7,130.1,271.9,127.4L271.9,127.4L271.9,127.4z"
	/>
</svg>
